<svg id="visual" viewBox="0 0 960 300" width="960" height="300" xmlns="http://www.w3.org/2000/svg" xmlns:xlink="http://www.w3.org/1999/xlink" version="1.1"><path d="M0 186L22.8 184.8C45.7 183.7 91.3 181.3 137 186.2C182.7 191 228.3 203 274 209.8C319.7 216.7 365.3 218.3 411.2 214.2C457 210 503 200 548.8 192.5C594.7 185 640.3 180 686 177.5C731.7 175 777.3 175 823 177.5C868.7 180 914.3 185 937.2 187.5L960 190L960 301L937.2 301C914.3 301 868.7 301 823 301C777.3 301 731.7 301 686 301C640.3 301 594.7 301 548.8 301C503 301 457 301 411.2 301C365.3 301 319.7 301 274 301C228.3 301 182.7 301 137 301C91.3 301 45.7 301 22.8 301L0 301Z" fill="#1b2735"></path><path d="M0 206L22.8 207C45.7 208 91.3 210 137 208.7C182.7 207.3 228.3 202.7 274 201.5C319.7 200.3 365.3 202.7 411.2 208.3C457 214 503 223 548.8 223.5C594.7 224 640.3 216 686 215.5C731.7 215 777.3 222 823 220.5C868.7 219 914.3 209 937.2 204L960 199L960 301L937.2 301C914.3 301 868.7 301 823 301C777.3 301 731.7 301 686 301C640.3 301 594.7 301 548.8 301C503 301 457 301 411.2 301C365.3 301 319.7 301 274 301C228.3 301 182.7 301 137 301C91.3 301 45.7 301 22.8 301L0 301Z" fill="#131f2d"></path><path d="M0 248L22.8 244.5C45.7 241 91.3 234 137 232.2C182.7 230.3 228.3 233.7 274 237.3C319.7 241 365.3 245 411.2 242C457 239 503 229 548.8 227.5C594.7 226 640.3 233 686 237.8C731.7 242.7 777.3 245.3 823 245.7C868.7 246 914.3 244 937.2 243L960 242L960 301L937.2 301C914.3 301 868.7 301 823 301C777.3 301 731.7 301 686 301C640.3 301 594.7 301 548.8 301C503 301 457 301 411.2 301C365.3 301 319.7 301 274 301C228.3 301 182.7 301 137 301C91.3 301 45.7 301 22.8 301L0 301Z" fill="#0b1825"></path><path d="M0 247L22.8 246.3C45.7 245.7 91.3 244.3 137 247.3C182.7 250.3 228.3 257.7 274 258.7C319.7 259.7 365.3 254.3 411.2 252.2C457 250 503 251 548.8 249.7C594.7 248.3 640.3 244.7 686 244C731.7 243.3 777.3 245.7 823 246.8C868.7 248 914.3 248 937.2 248L960 248L960 301L937.2 301C914.3 301 868.7 301 823 301C777.3 301 731.7 301 686 301C640.3 301 594.7 301 548.8 301C503 301 457 301 411.2 301C365.3 301 319.7 301 274 301C228.3 301 182.7 301 137 301C91.3 301 45.7 301 22.8 301L0 301Z" fill="#000f1d"></path><path d="M0 277L22.8 276.3C45.7 275.7 91.3 274.3 137 273.8C182.7 273.3 228.3 273.7 274 272.7C319.7 271.7 365.3 269.3 411.2 269.2C457 269 503 271 548.8 270.3C594.7 269.7 640.3 266.3 686 264.8C731.7 263.3 777.3 263.7 823 267C868.7 270.3 914.3 276.7 937.2 279.8L960 283L960 301L937.2 301C914.3 301 868.7 301 823 301C777.3 301 731.7 301 686 301C640.3 301 594.7 301 548.8 301C503 301 457 301 411.2 301C365.3 301 319.7 301 274 301C228.3 301 182.7 301 137 301C91.3 301 45.7 301 22.8 301L0 301Z" fill="#000000"></path></svg>